<?xml version="1.0" encoding="iso-8859-1"?>
<!-- Generator: Adobe Illustrator 19.0.0, SVG Export Plug-In . SVG Version: 6.00 Build 0)  -->
<svg version="1.1" id="Layer_1" xmlns="http://www.w3.org/2000/svg" xmlns:xlink="http://www.w3.org/1999/xlink" x="0px" y="0px"
	 viewBox="0 0 502.4 502.4" style="enable-background:new 0 0 502.4 502.4;" xml:space="preserve">
<path style="fill:#FCA12A;" d="M121.6,162.8c0-64,57.6-108,129.6-108c71.2,0,129.6,44,129.6,108H121.6z"/>
<rect x="115.2" y="162.8" style="fill:#5E6664;" width="272" height="48"/>
<path style="fill:#E0861B;" d="M251.2,162.8h129.6c0-64-57.6-108-129.6-108V162.8z"/>
<polyline style="fill:#2F423F;" points="115.2,162.8 387.2,162.8 387.2,210.8 "/>
<path style="fill:#FCA12A;" d="M502.4,247.6c0,47.2-112,36.8-251.2,36.8S0,294.8,0,247.6s112-36.8,251.2-36.8
	S502.4,201.2,502.4,247.6z"/>
<path style="fill:#E0861B;" d="M251.2,210.8c138.4,0,251.2-9.6,251.2,36.8c0,47.2-112,36.8-251.2,36.8"/>
<path style="fill:#FFC114;" d="M219.2,183.6c0,20-16,35.2-35.2,35.2h-0.8c-20,0-36-16-36-35.2v-0.8c0-20,16-35.2,35.2-35.2h0.8
	c20,0,35.2,16,35.2,35.2v0.8H219.2z"/>
<g>
	<path style="fill:#2F423F;" d="M207.2,185.2c0,12-9.6,22.4-22.4,22.4l0,0c-12,0-22.4-9.6-22.4-22.4l0,0c0-12,9.6-22.4,22.4-22.4
		l0,0C196.8,162.8,207.2,173.2,207.2,185.2L207.2,185.2z"/>
	<path style="fill:#2F423F;" d="M230.4,382.8c0,36-32.8,64.8-73.6,64.8s-61.6-28.8-61.6-64.8S116,342,156.8,342
		C197.6,342.8,230.4,347.6,230.4,382.8z"/>
</g>
<path style="fill:#FCA12A;" d="M156.8,342.8c40.8,0,73.6,4.8,73.6,40.8"/>
<path style="fill:#2F423F;" d="M272,382.8c0,36,32.8,64.8,73.6,64.8s61.6-28.8,61.6-64.8S386.4,342,345.6,342
	C304.8,342.8,272,347.6,272,382.8z"/>
<path style="fill:#FCA12A;" d="M407.2,382.8c0-36-20.8-40.8-61.6-40.8"/>
<path style="fill:#2F423F;" d="M200.8,384.4c28-28,72.8-28,100,0"/>
<g>
</g>
<g>
</g>
<g>
</g>
<g>
</g>
<g>
</g>
<g>
</g>
<g>
</g>
<g>
</g>
<g>
</g>
<g>
</g>
<g>
</g>
<g>
</g>
<g>
</g>
<g>
</g>
<g>
</g>
</svg>
